<?xml version="1.0" encoding="UTF-8" standalone="no"?>
<svg xmlns:rdf="http://www.w3.org/1999/02/22-rdf-syntax-ns#" xmlns="http://www.w3.org/2000/svg" version="1.1" xmlns:cc="http://creativecommons.org/ns#" xmlns:dc="http://purl.org/dc/elements/1.1/" viewBox="0 0 32 32">
	<g fill-rule="evenodd" transform="translate(0 -1020.4)">
		<path style="color-rendering:auto;color:#000000;isolation:auto;mix-blend-mode:normal;shape-rendering:auto;solid-color:#000000;image-rendering:auto" d="m9.4203 1020.4c-1.5062 0-2.7101 1.6758-3.0754 3l-6.3449 23c-0.65734 2.3829 2.0096 6 4.7198 6h22.56c2.7103 0 5.3772-3.6171 4.7198-6l-6.3448-23c-0.3653-1.3242-1.5693-3-3.0754-3z" fill="#033"/>
		<path style="color-rendering:auto;color:#000000;isolation:auto;mix-blend-mode:normal;shape-rendering:auto;solid-color:#000000;image-rendering:auto" d="m10.037 1023.4h4.8398l-0.10547 2.334h2.457l-0.10547-2.334h4.8398l0.80273 4.334h-5.5371-2.457l-0.0625 2-0.23047 7.332-0.09375 3h3.2305l-0.09375-3-0.23047-7.332h5.8457l1.3574 7.332h-4.9727l0.09375 3h5.4336l1.1738 6.334h-8.4297l-0.17774-4.334h-3.2305l-0.17774 4.334h-8.4297l1.1738-6.334h5.4336l0.09375-3h-4.9727l1.3574-7.332h3.8457l0.0625-2h-3.5371z" fill="#9ff"/>
	</g>
</svg>
