<svg width="469.35" height="537.14" version="1.1" viewBox="0 0 469.35 537.14" xmlns="http://www.w3.org/2000/svg">
	<g fill-rule="evenodd">
		<path d="m165.57 38.912c2e-3 13.588 5.775 26.568 6.7682 40.12 0.93129 12.707-2.4722 25.598-9.002 36.539-1.6948 2.8398-3.6228 5.5877-6.125 7.75-4.5751 3.9536-10.826 5.6543-16.868 5.4032-6.0415-0.25116-11.894-2.3242-17.224-5.1805-10.035-5.378-18.607-13.796-23.184-24.221-2.5632-5.8393-3.8376-12.145-5.2596-18.361-1.4221-6.2165-3.043-12.483-6.2074-18.02-4.086-7.1491-10.84-12.862-18.763-15.106-3.9614-1.1219-8.1747-1.3788-12.229-0.66394-4.0546 0.71484-7.9433 2.4076-11.179 4.954-3.5651 2.806-6.3042 6.6292-7.9047 10.874-1.6005 4.2453-2.0685 8.8992-1.4407 13.393 1.2554 8.9866 6.9458 17.101 14.606 21.965 5.4734 3.4757 11.793 5.3605 18.09 6.9023s12.701 2.7926 18.734 5.1665c4.9284 1.9391 9.6054 4.6488 13.391 8.3529 3.7853 3.7041 6.6465 8.4457 7.664 13.643 1.1858 6.057-0.19466 12.448-3.1196 17.883-2.925 5.4348-7.3141 9.9748-12.198 13.749-9.7672 7.5482-21.495 12.176-31.517 19.384-15.257 10.973-25.82 27.439-33.028 44.795-7.2081 17.355-11.372 35.788-16.193 53.951-6.3051 23.753-13.849 47.663-13.364 72.234 0.24254 12.286 2.5582 24.64 7.8236 35.742 5.2654 11.103 13.594 20.908 24.283 26.969 6.906 3.9164 14.598 6.2015 21.863 9.4037 7.2648 3.2022 14.391 7.5992 18.505 14.389 2.2412 3.699 3.4794 7.9674 3.806 12.28s-0.24195 8.6694-1.4317 12.828c-2.3795 8.3164-7.1644 15.732-12.347 22.658-4.6802 6.2544-9.8915 12.541-11.498 20.186-1.3098 6.2327 0.039 12.983 3.6625 18.221 3.6235 5.2376 9.475 8.8832 15.777 9.8044 6.1608 0.90051 12.646-0.80587 17.613-4.5606 4.9668-3.7547 8.3673-9.4979 9.3479-15.646 0.68741-4.3102 0.22677-8.7353-0.7205-12.996-0.94727-4.2607-2.3736-8.3969-3.6447-12.572-2.6083-8.5678-4.584-17.549-3.4892-26.438 0.54738-4.4444 1.876-8.8201 4.1485-12.679 2.2725-3.8585 5.5116-7.1855 9.4521-9.3128 3.3003-1.7816 7.0238-2.6952 10.763-2.9874 3.7391-0.29214 7.5034 0.0213 11.211 0.58418 7.416 1.1258 14.704 3.2507 22.198 3.5712 10.06 0.4302 20.042-2.4373 29.132-6.7694 9.0902-4.3321 17.407-10.101 25.686-15.834 8.2785-5.7328 16.611-11.483 25.721-15.773 9.1102-4.2898 19.117-7.0885 29.173-6.5647 14.614 0.76124 28.284 8.6073 38.108 19.454s16.111 24.489 20.33 38.501c1.3984 4.6449 2.588 9.3594 4.2854 13.904 1.6974 4.5442 3.9352 8.9539 7.1853 12.555 3.8605 4.2776 9.1873 7.3085 14.908 8.0005 5.7204 0.69202 11.782-1.0766 15.946-5.0591 3.9422-3.7701 5.988-9.2848 6.062-14.739 0.074-5.4543-1.709-10.832-4.5034-15.517-5.2216-8.7538-13.706-15.033-22.35-20.434-11.958-7.4713-25.071-14.091-33.422-25.451-4.1759-5.6803-6.9917-12.523-7.0626-19.573-0.0354-3.5249 0.61887-7.0679 2.0258-10.3 1.4069-3.2321 3.5747-6.146 6.3439-8.3271 3.847-3.0301 8.6992-4.5512 13.554-5.1892s9.775-0.4521 14.672-0.41132c4.8968 0.0408 9.8476-0.0716 14.592-1.2841 4.7445-1.2125 9.3183-3.6229 12.338-7.4778 2.8261-3.6076 4.1079-8.2501 4.2665-12.83s-0.73665-9.1332-1.8933-13.568c-1.1566-4.4344-2.5794-8.8026-3.5114-13.29-0.93197-4.487-1.3646-9.1461-0.51852-13.65 0.83333-4.436 2.9052-8.6082 5.7888-12.081 2.8836-3.4724 6.5635-6.2528 10.608-8.2564 8.089-4.0072 17.456-4.8631 26.432-3.8981 6.7437 0.72508 13.34 2.4274 20.022 3.5914 6.6819 1.164 13.588 1.7827 20.215 0.33873 9.7907-2.1333 18.383-8.8712 23.194-17.661s5.8835-19.46 3.3666-29.159c-2.5733-9.9166-9.0131-18.962-18.037-23.813-4.5119-2.4255-9.6084-3.7867-14.731-3.8058-5.1225-0.0191-10.26 1.3177-14.66 3.941-6.4849 3.8664-11.048 10.233-15.012 16.659-3.9643 6.4256-7.5928 13.184-12.923 18.531-5.8284 5.8466-13.451 9.7047-21.419 11.862s-16.299 2.6857-24.553 2.5189c-18.576-0.37539-37.774-4.5732-52.312-16.144-7.2688-5.7853-13.201-13.363-16.5-22.047-3.2989-8.6846-3.8689-18.484-1.0157-27.325 2.4604-7.6239 7.4729-14.436 14.145-18.871 2.8118-1.8691 5.8807-3.3106 8.8417-4.9331 2.961-1.6225 5.8605-3.4632 8.1231-5.9692 3.4252-3.7938 5.176-9.0549 4.6768-14.142-0.49913-5.0868-3.2489-9.9172-7.3858-12.919-3.939-2.858-9.0492-4.017-13.852-3.2281s-9.246 3.4948-12.225 7.3434c-2.4508 3.1666-3.8999 7.001-4.8743 10.885-0.97437 3.8838-1.5064 7.8639-2.3269 11.783-1.3661 6.5255-3.6036 13.009-7.6973 18.271-3.3755 4.3391-7.9448 7.7151-13.027 9.8105-5.0824 2.0954-10.664 2.9206-16.149 2.5405-10.969-0.76028-21.309-6.3526-28.853-14.351-7.544-7.9985-12.425-18.259-15.083-28.928-2.6579-10.669-3.1823-21.769-2.804-32.757 0.44028-12.786 2.2497-26.001 9.0723-36.824 3.8388-6.0897 9.0892-11.136 14.241-16.164 5.1522-5.0275 10.321-10.18 13.94-16.403 5.6196-9.6629 7.0339-21.865 2.9766-32.281-2.0286-5.2079-5.3706-9.9134-9.6926-13.457-4.322-3.5438-9.6215-5.9069-15.162-6.6419-5.0831-0.67437-10.326 0.021012-15.105 1.8794-4.779 1.8584-9.0913 4.8662-12.581 8.6232-6.9792 7.5139-10.501 17.902-10.499 28.157z" fill-opacity=".73617" style="paint-order:fill markers stroke"/>
		<path d="m196.84 5.4719c-5.5305 2.1507-10.45 5.5939-14.432 9.8809-7.9724 8.5832-11.837 20.16-11.836 31.561 2e-3 15.004 5.8743 28.109 6.7812 40.484 0.84837 11.576-2.2727 23.498-8.3086 33.611-1.5671 2.6258-3.2236 4.9064-5.1016 6.5293-3.407 2.9442-8.4281 4.3977-13.391 4.1914-6.7923-0.42248-7.2199 9.8465-0.41602 9.9902 7.1205 0.29602 14.602-1.6522 20.346-6.6152 3.1265-2.7018 5.3259-5.9169 7.1484-8.9707 7.0237-11.769 10.71-25.628 9.6953-39.467-1.0794-14.729-6.7521-27.583-6.7539-39.756-1e-3 -9.1102 3.176-18.309 9.1621-24.754 2.9974-3.227 6.703-5.799 7.4964-11.42 0.79344-5.6214 0.18219-5.4973-0.39097-5.2651zm100.62 134.94c-0.2836 2e-3 -0.56652 0.0281-0.8457 0.0781-6.1201 1.0053-11.61 2.3619-15.367 7.2168-3.0627 3.9572-4.7014 8.4632-5.7715 12.729-1.066 4.2492-1.6009 8.2956-2.3711 11.975-1.2779 6.104-3.3364 11.839-6.75 16.227-2.8046 3.6052-6.6772 6.4812-10.986 8.2578-4.3175 1.78-9.1437 4.5052-13.896 4.1758-6.7139-0.53353-7.4147 9.5788-0.6914 9.9766 6.2157 0.43084 12.553-2.4955 18.4-4.9062 5.8558-2.4142 11.122-6.2903 15.068-11.363 4.7737-6.1363 7.1902-13.369 8.6445-20.316 0.87078-4.1595 1.3985-8.0733 2.2812-11.592 0.87866-3.5024 2.1396-6.6651 3.9785-9.041 2.1998-2.8422 5.5976-4.8983 9.082-5.4707 6.1384-0.9229 5.4318-7.9849-0.77539-7.9453zm133.3 75.984c-0.95583-0.0175-1.8966 0.23942-2.7109 0.74023-7.6725 4.5745-12.617 11.699-16.707 18.328-4.071 6.5985-7.5648 12.968-12.209 17.627-5.066 5.0818-11.892 8.5899-19.186 10.564-7.319 1.9814-15.172 2.5088-23.145 2.3476-6.8217-0.30156-7.0314 10.02-0.20313 9.9961 8.535 0.17248 17.343-0.35822 25.961-2.6914 8.6437-2.3401 17.064-6.5468 23.654-13.158 6.0165-6.0354 9.7792-13.183 13.637-19.436 3.8389-6.2224 8.021-11.83 13.318-14.988 4.389-2.5344 2.6572-9.2385-2.4102-9.3301zm-105.32 243.41c-3.3651 0.0261-5.7443 3.3016-4.7285 6.5098 1.5069 5.0053 4.0079 10.87 9.6719 16.127 4.8917 4.7301 11.883-2.8012 6.8027-7.3281-4.1274-3.831-5.6104-7.3971-6.9004-11.682-0.61706-2.1603-2.5991-3.6438-4.8457-3.627zm-252.73 23.826c-1.6487-0.0457-3.2139 0.72444-4.1836 2.0586-4.5764 6.1157-10.446 12.918-12.387 22.152-1.6014 7.6199 6e-3 15.682 4.4434 22.096 3.7587 5.6649 12.199-0.17522 8.2227-5.6895-2.8101-4.0619-3.8992-9.5041-2.8809-14.35 1.2725-6.055 5.8254-11.824 10.609-18.217 2.495-3.2379 0.26196-7.939-3.8242-8.0508zm39.215-327.7c-2.4864 4.62-6.3561 8.688-10.852 12.162-9.0173 6.9687-20.68 11.587-31.379 19.281-16.294 11.718-27.283 29.017-34.725 46.936-7.4275 17.884-11.619 36.543-16.408 54.586-6.2648 23.602-14.038 47.957-13.531 73.615 0.0155 2.7894 2.3102 5.0268 5.0991 4.9717 2.7889-0.055 4.9935-2.3812 4.899-5.169-0.46364-23.484 6.8519-46.946 13.197-70.852 4.8535-18.285 8.9898-36.489 15.979-53.316 6.9741-16.792 17.11-32.427 31.33-42.654 9.3438-6.7201 21.137-11.359 31.654-19.486 5.2717-4.0741 10.179-9.0862 13.543-15.336 3.3891-6.2972 5.0768-13.787-0.0974-14.195-5.1742-0.40786-6.2483 4.8842-8.7092 9.4567zm-68.199-86.699c-1.9124 5.0729-2.4551 10.549 2.6096 10.662 5.0647 0.11341 5.4594-3.717 6.7478-7.1346 1.2857-3.4104 3.5096-6.4983-0.33952-9.8327-3.8492-3.3344-7.1027 1.2252-9.0179 6.3053z" color="#000000" color-rendering="auto" dominant-baseline="auto" fill="#fff" fill-opacity=".42157" image-rendering="auto" shape-rendering="auto" solid-color="#000000" style="font-feature-settings:normal;font-variant-alternates:normal;font-variant-caps:normal;font-variant-ligatures:normal;font-variant-numeric:normal;font-variant-position:normal;isolation:auto;mix-blend-mode:normal;paint-order:fill markers stroke;shape-padding:0;text-decoration-color:#000000;text-decoration-line:none;text-decoration-style:solid;text-indent:0;text-orientation:mixed;text-transform:none;white-space:normal"/>
	</g>
</svg>
